<svg width="283" height="41" viewBox="0 0 283 41" fill="none" xmlns="http://www.w3.org/2000/svg">
<path d="M1.00002 16.355C110.415 -3.07494 174.112 -3.7974 281.002 16.3729" stroke="#2C19F2" stroke-width="2" stroke-linecap="round"/>
<path opacity="0.5" d="M129.606 29.5688V28.6313H136.152V29.5688H133.407V37.3586H132.35V29.5688H129.606ZM139.441 37.4949C138.811 37.4949 138.267 37.3557 137.809 37.0773C137.355 36.7961 137.004 36.404 136.757 35.9012C136.512 35.3955 136.39 34.8074 136.39 34.137C136.39 33.4665 136.512 32.8756 136.757 32.3643C137.004 31.8501 137.348 31.4495 137.788 31.1626C138.231 30.8728 138.748 30.7279 139.339 30.7279C139.68 30.7279 140.017 30.7847 140.349 30.8984C140.681 31.012 140.984 31.1966 141.257 31.4523C141.529 31.7052 141.747 32.0404 141.909 32.458C142.071 32.8756 142.152 33.3898 142.152 34.0006V34.4268H137.106V33.5574H141.129C141.129 33.1881 141.055 32.8586 140.907 32.5688C140.762 32.279 140.555 32.0503 140.285 31.8827C140.018 31.7151 139.703 31.6313 139.339 31.6313C138.939 31.6313 138.592 31.7307 138.299 31.9296C138.01 32.1256 137.787 32.3813 137.63 32.6966C137.474 33.012 137.396 33.3501 137.396 33.7109V34.2904C137.396 34.7847 137.481 35.2038 137.652 35.5475C137.825 35.8884 138.065 36.1484 138.372 36.3273C138.679 36.5035 139.035 36.5915 139.441 36.5915C139.706 36.5915 139.944 36.5546 140.157 36.4807C140.373 36.404 140.559 36.2904 140.716 36.1398C140.872 35.9864 140.993 35.7961 141.078 35.5688L142.049 35.8415C141.947 36.1711 141.775 36.4609 141.534 36.7109C141.292 36.958 140.994 37.1512 140.639 37.2904C140.284 37.4268 139.885 37.4949 139.441 37.4949ZM144.687 28.6313V37.3586H143.681V28.6313H144.687ZM148.455 37.512C148.04 37.512 147.664 37.4339 147.326 37.2776C146.988 37.1185 146.719 36.8898 146.521 36.5915C146.322 36.2904 146.222 35.9268 146.222 35.5006C146.222 35.1256 146.296 34.8216 146.444 34.5887C146.592 34.3529 146.789 34.1682 147.036 34.0347C147.283 33.9012 147.556 33.8018 147.854 33.7364C148.156 33.6682 148.458 33.6143 148.762 33.5745C149.16 33.5234 149.482 33.485 149.729 33.4594C149.979 33.431 150.161 33.3841 150.275 33.3188C150.391 33.2535 150.45 33.1398 150.45 32.9779V32.9438C150.45 32.5234 150.334 32.1966 150.104 31.9637C149.877 31.7307 149.532 31.6143 149.069 31.6143C148.589 31.6143 148.212 31.7194 147.94 31.9296C147.667 32.1398 147.475 32.3643 147.364 32.6029L146.41 32.262C146.58 31.8643 146.808 31.5546 147.092 31.333C147.379 31.1086 147.691 30.9523 148.029 30.8643C148.37 30.7734 148.705 30.7279 149.035 30.7279C149.245 30.7279 149.486 30.7535 149.759 30.8046C150.035 30.8529 150.3 30.9538 150.556 31.1072C150.815 31.2606 151.029 31.4921 151.2 31.8018C151.37 32.1114 151.455 32.5262 151.455 33.0461V37.3586H150.45V36.4722H150.398C150.33 36.6143 150.217 36.7663 150.058 36.9282C149.898 37.0901 149.687 37.2279 149.423 37.3415C149.158 37.4552 148.836 37.512 148.455 37.512ZM148.609 36.6086C149.006 36.6086 149.342 36.5305 149.614 36.3742C149.89 36.218 150.097 36.0163 150.236 35.7691C150.379 35.5219 150.45 35.262 150.45 34.9893V34.0688C150.407 34.1199 150.313 34.1668 150.168 34.2094C150.026 34.2492 149.861 34.2847 149.674 34.316C149.489 34.3444 149.309 34.3699 149.133 34.3927C148.959 34.4126 148.819 34.4296 148.711 34.4438C148.45 34.4779 148.205 34.5333 147.978 34.61C147.754 34.6839 147.572 34.7961 147.433 34.9466C147.296 35.0944 147.228 35.2961 147.228 35.5518C147.228 35.9012 147.357 36.1654 147.616 36.3444C147.877 36.5205 148.208 36.6086 148.609 36.6086Z" fill="#1E1E1E"/>
</svg>
